<svg width="1195" height="793" viewBox="0 0 1195 793" fill="none" xmlns="http://www.w3.org/2000/svg">
<path d="M152.751 370.391L152.918 369.03L514.029 413.132L513.862 414.493L152.751 370.391Z" fill="#10100E"/>
<rect x="219" y="107" width="567" height="372" rx="15" fill="white" stroke="black" stroke-width="1.7"/>
<path d="M862.639 204.18C846.938 203.875 831.54 200.035 816.349 196.042C797.675 191.108 777.826 185.075 765.754 169.907C762.504 165.838 759.864 160.889 760.005 155.665C760.142 150.629 762.837 146 766.153 142.216C791.856 112.974 839.963 128.676 866.959 147.16C881.04 156.799 886.384 169.307 889.256 185.502C890.008 189.739 890.7 194.378 888.62 198.142C886.405 202.15 881.696 203.966 877.29 205.126C870.441 206.925 863.402 207.89 856.325 208L862.639 204.18Z" fill="#10100E"/>
<path d="M714 371.045L562.243 295.231C551.164 289.669 538.916 286.849 526.525 287.006C523.39 287.057 520.259 287.15 517.131 287.288C503.415 287.886 479.491 287.791 468.214 297.343C467.222 298.12 466.489 299.18 466.112 300.384C465.294 303.401 467.657 305.271 470.056 305.678C474.904 306.493 480.319 305.824 485.197 305.718C493.127 305.553 501.161 305.628 509.056 305.03C512.89 304.738 516.538 305.361 518.405 309.192C520.132 312.747 518.907 318.649 514.099 318.649L494.758 319.484C481.047 318.478 461.816 322.641 449.174 328.075C446.665 329.151 443.453 330.715 441.967 333.103C437.656 339.991 448.928 340.735 452.792 340.795C461.996 340.941 471.005 339.106 480.124 338.231C480.706 338.176 481.308 338.13 481.915 338.095L483.15 343.842C479.785 344.602 476.362 345.076 472.917 345.259C466.172 345.762 442.454 343.439 442.735 354.449C442.916 361.619 451.467 361.669 456.551 361.252L486.372 358.813L488.148 367.063L457.284 371.618C454.042 372.121 451.407 374.745 451.302 378.023C451.126 383.594 457.826 384.654 462.784 384.413L491.581 383.015L492.379 386.711C491.511 386.892 490.597 386.826 489.814 387.042C484.003 388.676 463.773 389.647 462.935 397.756C462.473 402.21 468.084 404.93 471.783 405.332C478.628 406.071 483.255 402.864 490.126 403.321C496.007 403.729 504.519 402.819 510.095 406.036L667.468 491L714 371.045Z" fill="white"/>
<path d="M713.685 371.148L579.309 304.046C573.595 301.196 567.91 298.271 562.161 295.516C540.607 285.068 515.644 286.037 492.341 288.992C484.321 290.021 473.544 291.637 467.449 297.658C465.634 299.46 464.171 301.934 465.594 304.478C467.664 308.156 474 307.449 477.273 307.393C484.652 307.278 492.05 307.032 499.429 306.826C502.938 306.726 507.053 305.863 510.567 306.324C519.644 307.519 520.557 316.862 512.737 318.789C507.273 320.129 500.095 319.547 494.436 319.572C481.965 319.622 470.161 321.002 458.171 324.716C453.749 326.081 438.466 329.824 440.125 337.206C441.338 342.59 450.922 342.138 454.952 342.063C462.025 341.933 469.018 340.733 476.005 339.915C476.973 339.8 480.416 338.791 480.988 339.238C481.202 339.865 481.341 340.515 481.404 341.175C483.554 345.626 478.717 344.718 475.093 345.079C467.855 345.791 438.682 342.369 441.95 356.62C443.389 362.903 451.133 362.762 456.181 362.496C464.291 362.06 472.471 361.312 480.552 360.489C479.81 360.565 485.414 359.817 485.424 359.827C485.805 360.128 485.674 361.458 485.875 361.934C486.126 362.522 487.379 366.576 487.028 367.284C486.827 367.71 478.827 368.363 477.298 368.588L465.739 370.289C461.559 370.907 455.369 370.56 452.206 374.048C447.088 379.713 452.757 384.756 458.486 385.469C464.832 386.262 471.714 385.148 478.08 384.837C480.456 384.721 487.369 383.271 489.609 384.235C490.491 384.616 491.389 384.32 491.113 386.141C490.867 387.682 491.524 386.066 490.517 386.834C488.562 388.309 482.998 388.169 480.632 388.585C476.491 389.313 472.181 390.051 468.311 391.762C463.298 393.965 459.348 398.862 464.386 403.504C467.128 406.013 471.073 406.71 474.657 406.515C481.063 406.199 487.013 404.452 493.534 404.608C499.735 404.758 505.514 405.15 511.078 408.015C514.055 409.556 516.983 411.202 519.935 412.797L662.818 489.915L666.552 491.922C666.718 492.013 666.916 492.025 667.091 491.954C667.266 491.883 667.399 491.736 667.455 491.556L708.202 386.643C710.116 381.702 712.035 376.763 713.956 371.825C714.242 371.082 713.054 370.766 712.768 371.499C704.44 392.936 696.113 414.375 687.785 435.815C682.439 449.635 677.072 463.454 671.685 477.274C670.181 481.133 668.357 485.002 667.144 488.961C667.013 489.393 666.678 490.798 666.312 491.109C666.648 490.823 667.605 490.898 666.407 490.447C659.434 487.817 652.668 483.03 646.121 479.497L607.68 458.748L526.978 415.206C520.852 411.904 514.727 407.829 508.256 405.21C502.782 402.997 496.446 403.464 490.672 403.303C484.286 403.128 472.446 408.236 467.203 403.935C465.238 402.325 463.193 397.206 464.907 395.249C466.005 393.97 468.622 392.936 470.09 392.384C472.438 391.557 474.846 390.913 477.293 390.457C482.11 389.453 487.123 388.45 492.005 387.893C492.195 387.888 492.372 387.797 492.487 387.646C492.602 387.495 492.642 387.299 492.597 387.115C492.329 385.884 492.065 384.654 491.805 383.427C491.731 383.158 491.487 382.971 491.208 382.97L472.907 383.858C468.281 384.084 460.877 385.68 456.366 383.858C450.381 378.506 450.627 374.826 457.103 372.819L459.669 372.442C462.958 371.604 466.587 371.439 469.945 370.937L487.93 368.287C488.255 368.19 488.445 367.853 488.361 367.525L486.587 359.29C486.511 359.023 486.267 358.839 485.99 358.838C475.875 359.666 465.729 360.775 455.594 361.312C452.692 361.468 448.441 361.814 445.96 360.048C439.709 355.531 444.291 350.107 449.148 348.416C459.739 344.728 471.985 347.442 482.938 345.104C483.262 345.009 483.452 344.674 483.369 344.346C482.958 342.436 482.545 340.524 482.131 338.611C482.058 338.343 481.816 338.158 481.539 338.159C470.406 339.002 457.624 343.036 446.521 340.256C441.81 339.077 440.005 335.971 444.556 331.881C446.937 329.734 450.571 328.665 453.549 327.586C459.352 325.493 465.308 323.852 471.364 322.678C485.444 319.903 499.805 322.452 513.79 319.989C518.652 319.131 520.762 314.133 518.537 309.631C517.294 307.122 515.028 305.778 512.376 305.271C505.94 304.041 498.025 305.662 491.459 305.772C488 305.823 484.552 305.878 481.093 306.028C478.587 306.134 474.416 307.157 472.176 306.124C461.865 301.387 469.9 297.041 473.509 295.245C476.624 293.761 479.896 292.633 483.263 291.883C493.223 289.484 503.569 289.223 513.76 288.837C531.715 288.154 547.625 289.685 563.925 297.789C571.013 301.311 578.092 304.846 585.163 308.392L660.171 345.837L713.054 372.236C713.771 372.553 714.397 371.489 713.685 371.148Z" fill="#10100E"/>
<path d="M974.142 294.369L962.622 296.479L895.624 210.023H895.675C900.98 210.029 905.402 205.962 905.84 200.673C906.278 195.384 902.586 190.644 897.352 189.777C892.118 188.91 887.095 192.205 885.805 197.353L870.808 178C824.626 190.559 842.337 244.983 842.337 244.983L860.963 230.269L890.523 309.689C882.715 304.758 874.398 300.684 865.716 297.539C865.555 333.595 897.507 364.997 934.076 353.639C961.83 344.629 973.264 320.88 975 294.218C974.712 294.273 974.445 294.314 974.142 294.369Z" fill="white"/>
<path fill-rule="evenodd" clip-rule="evenodd" d="M888.365 346.93C897.427 353.596 907.76 357 918.438 357C923.738 356.991 929.006 356.187 934.064 354.616C966.074 344.304 974.495 316.166 975.924 294.371L976 293.234L962.896 295.573L896.745 210.83C902.082 210.04 906.09 205.58 906.276 200.225C906.463 194.87 902.774 190.146 897.506 188.992C892.237 187.838 886.89 190.582 884.791 195.518L870.334 177L869.754 177.157C857.189 180.55 848.092 187.287 842.717 197.169C831.581 217.642 840.078 244.194 840.45 245.316L840.851 246.538L859.666 231.787L888.142 307.657C880.874 303.29 873.191 299.645 865.203 296.774L864.003 296.345V297.613C863.922 316.929 873.253 335.821 888.365 346.93ZM889.438 345.516C875.114 334.987 866.144 317.232 865.819 298.926V298.9C874.065 301.971 881.975 305.866 889.428 310.525L891.676 311.919L860.556 228.863L841.868 243.508C840.307 237.998 834.937 215.374 844.375 198.023C849.43 188.736 857.952 182.353 869.724 179.045L885.579 199.412L886.031 197.624C887.219 192.923 891.845 189.916 896.658 190.717C901.472 191.518 904.858 195.858 904.438 200.687C904.018 205.516 899.933 209.214 895.052 209.183H893.206L962.184 297.557L974.052 295.396C972.446 316.469 964.035 343.092 933.525 352.915C918.067 357.677 902.41 355.051 889.438 345.516Z" fill="#10100E"/>
<path d="M1143.39 402.757C1123.1 327.998 1049.17 281.158 973.052 294.672C971.321 321.266 959.973 344.956 932.255 353.943C895.785 365.272 863.948 333.949 864.109 297.985C777.848 267.115 718.852 365.715 718.852 365.715L667.583 345.263C679.409 404.982 605 470.547 605 470.547L877.193 583.083L1053.49 610L1160 463.946L1143.39 402.757Z" fill="#006BFF"/>
<path d="M912 606.428L1003.44 389L1186 443.694L1094.02 672L912 606.428Z" fill="#EBEBEB"/>
<path d="M165 419.442C156.768 410.7 149.406 406 149.406 406L140 428.755C149.116 430.058 157.872 426.049 165 419.442Z" fill="#10100E"/>
<path fill-rule="evenodd" clip-rule="evenodd" d="M139.895 429.748C141.047 429.916 142.209 430 143.373 430C150.883 430 158.607 426.605 165.492 420.157L166 419.664L165.492 419.139C160.755 413.99 155.481 409.397 149.764 405.446L149.073 405L139 429.622L139.895 429.748ZM163.992 419.58C156.802 426.107 148.692 429.229 140.988 428.426L149.714 407.109C154.857 410.774 159.639 414.951 163.992 419.58Z" fill="#10100E"/>
<path d="M165.123 420C158.144 426.414 149.551 430.291 140.613 429.027L137.971 435.351C136.369 429.767 131.459 425.808 125.713 425.467C119.968 425.126 114.632 428.477 112.393 433.832C110.154 439.187 111.497 445.386 115.745 449.308C119.994 453.23 126.227 454.024 131.307 451.291L96 535.779L155.717 562L165.267 472.839L186.821 474.889C188.651 450.319 176.094 431.529 165.123 420Z" fill="white"/>
<path fill-rule="evenodd" clip-rule="evenodd" d="M95 535.853L156.587 563L166.173 473.227L187.752 475.288L187.817 474.373C189.685 449.363 176.925 430.242 165.894 418.626L165.296 418L164.658 418.586C157.255 425.394 148.81 428.535 140.883 427.414L140.21 427.323L138.162 432.237C134.848 425.089 126.545 421.883 119.379 424.985C112.213 428.088 108.756 436.384 111.558 443.754C114.36 451.125 122.415 454.923 129.782 452.348L95 535.853ZM155.092 560.384L97.2969 534.919L133.2 448.651L130.998 449.843C126.248 452.411 120.418 451.667 116.444 447.988C112.47 444.308 111.214 438.489 113.308 433.463C115.402 428.436 120.392 425.292 125.765 425.614C131.138 425.935 135.729 429.653 137.226 434.894L137.923 437.323L141.271 429.278C149.318 430.182 157.748 427.06 165.187 420.495C175.709 431.767 187.533 449.863 186.113 473.328L164.599 471.278L155.092 560.384Z" fill="#10100E"/>
<circle cx="124.661" cy="369.445" r="49.1908" transform="rotate(-45 124.661 369.445)" fill="#10100E"/>
<path fill-rule="evenodd" clip-rule="evenodd" d="M78.7708 388.446C86.4339 406.943 104.485 419.002 124.506 419C151.829 418.967 173.97 396.824 174 369.5C174 349.479 161.939 331.43 143.442 323.769C124.945 316.107 103.654 320.343 89.4977 334.501C75.3414 348.659 71.1077 369.95 78.7708 388.446ZM80.0291 351.076C87.4814 333.088 105.036 321.361 124.506 321.363C151.077 321.396 172.608 342.929 172.638 369.5C172.638 388.971 160.909 406.524 142.921 413.974C124.933 421.424 104.228 417.305 90.4607 403.537C76.6939 389.769 72.5768 369.063 80.0291 351.076Z" fill="#10100E"/>
<path d="M165.047 433.248C165.781 435.534 167.024 437.681 168.709 439.576C169.618 440.599 171.694 439.576 170.767 438.558C169.195 436.812 168.035 434.827 167.35 432.712C166.948 431.463 164.645 431.994 165.047 433.248Z" fill="#10100E"/>
<path d="M178.702 437.937C182.189 439.034 185.431 440.755 188.26 443.01V441.633C186.41 443.052 184.353 444.2 182.155 445.037C180.953 445.515 181.477 447.394 182.69 446.925C185.213 445.966 187.574 444.647 189.695 443.014C189.89 442.834 190 442.584 190 442.323C190 442.063 189.89 441.813 189.695 441.633C186.605 439.153 183.059 437.259 179.241 436.053C178 435.661 177.465 437.55 178.702 437.942V437.937Z" fill="#10100E"/>
<path d="M176.466 458.672C179.466 460.922 183.36 460.258 185.734 457.093C186.588 455.914 185.186 454.229 184.332 455.39C182.594 457.777 179.685 458.277 177.47 456.568C176.383 455.744 175.384 457.829 176.466 458.648V458.672Z" fill="#10100E"/>
<path d="M119.261 435.803C121.692 438.697 124.365 441.358 127.248 443.754C128.217 444.582 129.671 443.12 128.653 442.287C125.771 439.89 123.097 437.231 120.661 434.341C119.818 433.325 118.417 434.808 119.261 435.808V435.803Z" fill="#10100E"/>
<path d="M410 612.968C369.026 580.391 324.329 552.81 276.85 530.807C263.056 547.554 247.82 566.172 235.769 581.194C205.664 543.967 168.737 515.83 124.913 512.339C-16.5556 501.06 0.659577 774.83 0.659577 774.83L0.0216074 792H336.086C336.086 792 334.077 784.313 330.058 771.5C338.874 749.269 369.597 674.911 410 612.968Z" fill="#FFC100"/>
<path d="M386.898 620C404.486 582.837 419.852 550.246 426.055 536.718C444.35 496.825 414.58 482.136 414.58 482.136C413.023 464.772 399.72 462.866 399.72 462.866C395.88 447.825 381.045 448.831 381.045 448.831C378.041 419.754 344.536 429.284 344.536 429.284L332.204 372.559C331.863 370.983 330.882 369.62 329.498 368.801C328.114 367.982 326.453 367.78 324.914 368.245C322.429 368.996 320.747 371.321 320.804 373.927L322.546 450.148C298.749 466.713 318.145 495.749 318.145 495.749C318.145 495.749 306.129 515.603 292 539.273C326.772 561.545 358.75 589.048 386.898 620Z" fill="white"/>
<path fill-rule="evenodd" clip-rule="evenodd" d="M386.083 619.992L386.98 621L387.55 619.805C408.219 576.328 421.485 548.238 426.973 536.323C444.281 498.743 419.186 482.791 415.457 480.684C413.859 465.321 403.048 461.803 400.377 461.163C396.733 448.184 384.939 447.035 381.648 446.969C380.701 439.399 377.571 433.744 372.339 430.216C362.531 423.567 348.51 426.299 344.775 427.191L332.563 371.244C331.816 367.893 328.656 365.648 325.245 366.045C321.835 366.442 319.275 369.353 319.318 372.787L321.057 448.708C298.956 464.459 314.066 490.956 316.48 494.877C316.261 495.24 315.92 495.803 315.467 496.55C311.969 502.325 301.847 519.036 290.449 538.032L290 538.778L290.736 539.247C325.028 561.106 357.108 588.273 386.083 619.992ZM386.507 617.834C357.864 586.62 326.228 559.866 292.429 538.234C306.31 515.104 318.179 495.553 318.315 495.371L318.612 494.867L318.295 494.393C317.519 493.234 299.546 465.825 322.488 449.923L322.886 449.651L321.122 372.772C321.073 370.562 322.504 368.591 324.62 367.953C325.93 367.563 327.343 367.734 328.521 368.428C329.698 369.121 330.535 370.273 330.829 371.607L343.429 429.394L344.342 429.137C344.508 429.087 360.853 424.581 371.336 431.692C376.291 435.054 379.194 440.528 379.96 447.957L380.05 448.814L380.912 448.759C381.492 448.718 395.15 447.983 398.789 462.146L398.94 462.72L399.53 462.806C400.044 462.887 412.236 464.867 413.718 481.314L413.763 481.818L414.217 482.04C415.406 482.649 443.167 496.883 425.35 535.572C419.912 547.372 406.848 575.043 386.507 617.834Z" fill="#10100E"/>
<path d="M889 388L1001 471.356L920.791 509L889 388Z" fill="#10100E"/>
<path d="M841 674.123L661.995 751L600 530.317L746.12 486L841 674.123Z" fill="#EBEBEB"/>
<path d="M526.619 442.889C521.052 448.571 515.41 458 521.192 463.461C523.25 465.405 526.317 466.117 528.13 468.291C533.862 475.151 521.423 484.575 523.291 493.313C524.927 500.979 537.13 506.15 533.465 513.089C531.171 517.438 524.139 517.233 521.674 521.492C517.879 528.045 528.667 534.173 529.384 541.708C530.147 549.725 519.159 556.469 522.131 563.969C523.777 568.118 529.159 569.982 530.439 574.271C532.833 582.237 519.33 587.879 520.63 596.096C521.483 601.502 528.295 604.007 530.213 609.123C532.948 616.433 524.812 625.833 529.947 631.71C535.012 637.502 547.922 632.637 550.292 639.952C550.914 641.871 550.392 643.96 550.794 645.964C551.828 651.285 558.996 653.224 564.051 651.235C569.105 649.246 572.689 644.807 576.705 641.154C580.721 637.502 586.167 634.385 591.373 635.934C595.389 637.121 599.244 640.944 603.029 639.18C607.185 637.261 606.372 630.703 609.735 627.596C615.804 621.98 628.037 632.466 633.082 625.918C635.089 623.297 634.301 619.404 635.802 616.463C639.562 609.063 652.262 613.908 658.366 608.276C662.261 604.684 661.573 597.9 658.024 593.967C654.476 590.033 648.989 588.455 643.683 588.034C646.193 579.722 647.297 568.138 639.251 564.836C636.555 563.729 633.343 563.954 630.918 562.331C622.957 557.005 633.804 542.705 627.685 535.34C624.076 530.996 616.542 531.908 612.892 527.599C607.436 521.141 614.684 508.239 607.34 504.05C604.956 502.693 601.774 502.998 599.68 501.235C593.868 496.324 604.63 487.406 602.692 480.066C601.036 473.853 592.121 473.627 587.367 469.283C579.336 461.968 585.158 445.163 575.47 440.278C570.953 438.014 564.337 439.387 561.696 435.098C559.613 431.721 561.757 427.206 560.602 423.408C558.935 417.897 551.782 416.735 546.045 416.559C550.176 410.412 546.381 400.656 539.173 398.903C537.085 398.402 534.806 398.447 532.933 397.4C528.893 395.115 528.757 388.972 525.037 386.196C519.285 381.902 511.283 390.009 512.051 397.139C512.819 404.269 518.075 409.976 521.122 416.474C524.996 424.915 525.093 434.603 521.388 443.119L526.619 442.889Z" fill="#10100E"/>
<path d="M560 550L532.891 436.472C538.576 439.555 545.679 437.58 548.961 432.003C552.243 426.426 550.528 419.249 545.079 415.764C539.631 412.279 532.405 413.737 528.73 419.062L527.494 413.89C514.387 413.915 501.36 402.775 498.646 390C464.672 406.02 469.201 457.267 469.201 457.267L496.721 448.714L482.881 545.642L560 550Z" fill="white"/>
<path fill-rule="evenodd" clip-rule="evenodd" d="M481.579 546.562L560 551L533.366 438.932C539.371 441.128 546.066 438.524 549.033 432.84C552 427.156 550.322 420.145 545.108 416.434C539.894 412.724 532.751 413.46 528.395 418.155L527.401 414.092H526.655C514.327 414.092 501.681 403.573 499.037 391.093L498.803 390L497.809 390.499C464.037 406.479 468.133 457.603 468.178 458.102L468.272 459.195L495.204 450.823L481.579 546.562ZM557.733 549.103L483.597 544.904L497.357 448.322L469.873 456.864C469.495 449.515 468.65 407.232 497.585 392.606C500.831 405.141 513.497 415.549 526.029 415.899L527.55 422.289L528.673 420.661C532.035 415.761 538.656 414.415 543.651 417.616C548.645 420.817 550.218 427.415 547.208 432.54C544.198 437.666 537.687 439.476 532.481 436.636L530.746 435.687L557.733 549.103Z" fill="#10100E"/>
<path d="M527 414L520.134 385C511.363 385.137 504.073 386.907 498 389.792C500.738 402.737 513.824 414.025 527 414Z" fill="#10100E"/>
<path fill-rule="evenodd" clip-rule="evenodd" d="M497.117 389.56C499.992 402.819 513.687 413.995 527.055 413.995L527.066 414H528L520.724 384H520.167C511.706 384.131 504.087 385.746 497.511 388.8L497 389.032L497.117 389.56ZM526.223 412.606C513.917 412.163 501.519 401.964 498.598 389.812C504.736 387.054 511.798 385.57 519.616 385.389L526.223 412.606Z" fill="#10100E"/>
<path d="M895 409.682L889.479 388C881.43 388.689 874.681 390.667 869 393.517C874.755 402.816 884.549 411.818 895 409.682Z" fill="#10100E"/>
<path fill-rule="evenodd" clip-rule="evenodd" d="M868.411 393.797C873.687 402.456 882.413 410.999 892.015 410.999C893.114 411.005 894.211 410.896 895.289 410.675L896 410.529L890.113 387L889.542 387.052C881.812 387.721 874.793 389.635 868.686 392.772L868 393.123L868.411 393.797ZM894.313 409.389C884.631 410.921 875.529 402.487 869.987 393.703H869.982C876.014 390.831 882.479 389.078 889.086 388.521L894.313 409.389Z" fill="#10100E"/>
<path d="M859.052 544L926 530.623L899.925 431.49C904.522 434.95 910.819 435.135 915.613 431.951C920.407 428.767 922.644 422.913 921.186 417.369C919.727 411.825 914.894 407.809 909.146 407.364C903.397 406.919 897.997 410.143 895.692 415.396L894.227 409.838C883.657 411.929 873.74 403.1 867.916 394C835.152 409.943 838.066 454.032 838.066 454.032L867.458 445.747L859.067 538.517L859.052 544Z" fill="white"/>
<path fill-rule="evenodd" clip-rule="evenodd" d="M858.043 538.413V545L927 531.156L901.25 432.805C903.322 433.909 905.634 434.484 907.982 434.48C914.899 434.49 920.851 429.598 922.172 422.817C923.494 416.036 919.812 409.272 913.396 406.691C906.98 404.11 899.632 406.437 895.877 412.239L894.78 408.03L893.954 408.196C883.818 410.213 874.181 401.503 868.561 392.674L868.133 392L867.413 392.352C834.483 408.453 837.026 453.115 837.056 453.568L837.127 454.669L866.331 446.392L858.043 538.413ZM859.825 538.488L868.34 443.953L838.803 452.346C838.657 445.482 839.216 408.744 867.504 394.318C873.34 403.173 883.023 411.651 893.481 410.102L895.384 417.383L896.391 415.025C898.537 410.086 903.582 407.049 908.957 407.461C914.332 407.873 918.854 411.643 920.22 416.85C921.587 422.058 919.496 427.558 915.014 430.549C910.532 433.54 904.644 433.364 900.349 430.11L898.289 428.546L924.779 529.743L859.825 542.817V538.488Z" fill="#10100E"/>
<path d="M1123 793L1066.46 593.446C1066.46 593.446 1050.3 502.353 952.831 511.669L873.704 528.34C809.842 552.692 781.982 586.17 763.835 633.211L695 793H1123Z" fill="#FF9F94"/>
<path d="M742 792C742 792 718.714 586.585 601.35 544.825C478.456 501.092 421.723 515.872 394.448 553.112C367.173 590.352 319 792 319 792H742Z" fill="#00C1AD"/>
<path d="M808 558.246C804.107 547.916 798.313 538.159 790.167 530.716C782.022 523.273 771.401 518.277 760.377 518.008C754.886 517.873 748.593 519.436 746.063 524.327C743.402 529.472 746.147 535.817 749.776 540.313C756.703 548.94 766.595 554.575 776.228 560L808 558.246Z" fill="white"/>
<path d="M776.23 560.98C776.112 560.981 775.996 560.952 775.893 560.896C766.637 555.785 756.141 550.001 748.958 541.212C744.174 535.364 742.747 529.169 745.137 524.638C747.415 520.319 753.087 517.848 760.22 518.007C771.018 518.269 781.861 522.805 790.759 530.783C798.462 537.716 804.582 546.961 808.952 558.336C809.092 558.686 808.915 559.08 808.559 559.217C808.203 559.354 807.801 559.181 807.662 558.831C803.372 547.659 797.373 538.567 789.831 531.803C781.181 524.043 770.675 519.631 760.189 519.379C757.704 519.319 749.366 519.572 746.357 525.276C743.201 531.268 748.373 538.354 750.032 540.385C757.049 548.962 767.418 554.686 776.568 559.737C776.843 559.886 776.979 560.199 776.899 560.497C776.82 560.796 776.544 561.002 776.23 561V560.98Z" fill="#10100E"/>
<path d="M1148.23 526.998C1145.61 518.388 1140.15 511.344 1134.74 504.652C1130.85 499.852 1126.87 494.37 1121.37 491.292C1118.11 489.465 1109.84 487 1107.68 491.749C1106.89 493.491 1107.24 495.575 1108.13 497.271C1109.93 500.69 1133.3 529.493 1133.82 529.202C1132.09 530.171 1130.53 531.412 1129.19 532.877C1122.9 524.636 1115.89 516.973 1108.24 509.978C1106.55 508.442 1104.8 506.911 1102.69 506.052C1099.92 504.851 1096.7 505.425 1094.51 507.51C1092.33 509.595 1091.6 512.787 1092.66 515.616C1094.13 519.633 1119.55 546.849 1119.33 547.06L1115.32 550.916C1111 543.777 1080.35 507.503 1078.05 528.941C1077.21 536.733 1096.84 554.47 1105.24 566.168C1105.42 566.414 1105.61 566.715 1105.8 567.047C1102.44 568.237 1101.98 566.715 1100.54 570.385C1095.48 563.859 1085.11 551.347 1077.13 550.379C1075.65 550.198 1074.52 553.471 1074.12 555.108C1072.7 561.132 1084.22 575.28 1088.56 578.127C1090.48 579.387 1093.07 586.516 1094.37 588.56C1095.23 589.925 1095.69 591.572 1096.19 593.163C1097.71 597.96 1099.83 602.542 1102.51 606.799C1103.05 607.795 1103.81 608.664 1104.71 609.35C1107.12 610.931 1110.14 609.35 1112.46 607.572C1118.51 602.951 1123.75 597.352 1127.97 591.005C1127.97 590.794 1127.97 590.588 1127.93 590.377C1129.94 588.173 1131.7 585.427 1133.2 583.298C1137.9 576.628 1141.9 569.491 1145.14 562.001C1149.74 551.162 1151.7 538.359 1148.23 526.998Z" fill="white"/>
<path d="M1149.33 526.914C1145.34 515.107 1136.34 502.992 1127.15 494.554C1123.22 490.932 1112.89 484.618 1108.01 490.231C1103.88 494.972 1110.38 501.327 1113.12 504.858C1118.56 511.854 1124.14 518.769 1129.9 525.512C1130.52 526.244 1133.55 528.755 1133.67 529.693C1133.56 528.821 1130.86 531.141 1130.5 531.146C1127.04 531.146 1123.56 524.645 1121.51 522.355C1116.49 516.741 1104.96 500.384 1095.53 505.958C1089.61 509.458 1091.45 515.576 1094.83 519.929C1100.25 526.914 1106.37 533.406 1112.3 539.962C1113.77 541.602 1117.74 544.537 1118.32 546.671C1118.59 547.649 1118.07 548.885 1116.42 549.369C1114.07 550.06 1116.95 550.443 1115.05 549.303C1114.52 548.981 1113.98 547.831 1113.62 547.352C1108.92 541.119 1103.64 535.354 1097.83 530.137C1092.8 525.648 1076.16 514.663 1077.28 530.036C1077.9 538.485 1088.21 547.367 1093.4 553.202C1095.15 555.169 1105.49 565.489 1104.27 567.118C1104.22 567.183 1101.74 567.89 1101.49 567.935C1099.26 568.338 1100.67 569.665 1098.07 566.528C1094.7 562.452 1082.65 546.857 1075.76 550.388C1069.36 553.661 1075.79 564.369 1078.05 567.693C1080.77 571.728 1084.05 574.936 1087.4 578.381C1091.31 582.385 1093.7 588.468 1095.62 593.693C1097.38 598.495 1099.66 607.458 1104.37 610.232C1108.15 612.456 1111.96 609.369 1114.85 607.059C1125.54 598.566 1134.01 585.326 1140.65 573.574C1148.74 559.245 1153.8 543.251 1149.33 526.899C1149.24 526.571 1148.9 526.377 1148.57 526.468C1148.24 526.558 1148.05 526.898 1148.14 527.227C1153.82 548.088 1143.75 568.323 1131.84 584.998C1127.09 591.646 1122.68 598.45 1116.53 603.972C1114.95 605.405 1112.51 608.078 1110.46 608.719C1104.5 610.56 1102.84 606.741 1100.98 603.216C1098.75 599.014 1097.64 594.495 1095.73 590.193C1094.09 586.471 1092.27 581.709 1089.63 578.592C1085.84 574.149 1081.48 570.81 1078.24 565.701C1076.67 563.209 1074.7 560.153 1074.56 557.172C1074.47 555.235 1075.64 551.624 1078.17 551.392C1079.76 551.25 1082.39 553.248 1083.77 554.181C1090.23 558.564 1095.4 564.984 1100.16 571.067C1100.3 571.203 1100.49 571.268 1100.68 571.243C1100.87 571.218 1101.04 571.107 1101.14 570.941C1102.23 568.555 1103.78 568.505 1106.08 567.869C1106.27 567.817 1106.42 567.683 1106.49 567.506C1106.56 567.328 1106.55 567.127 1106.45 566.962C1101.17 558.715 1093.62 551.861 1087.37 544.366C1084.39 540.795 1079.69 535.872 1078.74 531.07C1077.89 526.748 1080.06 522.108 1084.94 523.157C1091.8 524.624 1098.04 531.731 1102.69 536.528C1107.1 541.102 1111.59 545.99 1114.99 551.381C1115.09 551.544 1115.26 551.653 1115.44 551.677C1115.63 551.702 1115.82 551.639 1115.96 551.508L1120.01 547.634C1120.2 547.432 1120.25 547.128 1120.11 546.882C1118.94 544.361 1115.86 542.025 1114.01 539.983C1109.67 535.166 1105.31 530.359 1101.07 525.447C1099.25 523.338 1097.42 521.225 1095.71 519.021C1095.03 518.247 1094.42 517.415 1093.88 516.534C1089.98 508.464 1097.93 504.268 1104.47 507.597C1109.57 510.184 1114.39 516.444 1118.2 520.534C1122.01 524.624 1125.63 528.952 1129.09 533.385C1129.33 533.625 1129.72 533.625 1129.96 533.385C1131.27 531.95 1132.81 530.736 1134.51 529.789C1134.72 529.658 1134.84 529.419 1134.8 529.175C1134.77 528.931 1134.6 528.728 1134.37 528.654C1131.61 527.62 1128.03 521.336 1126.15 519.071C1121.47 513.392 1116.81 507.678 1112.35 501.822C1111.33 500.52 1109.47 498.765 1108.98 497.171C1105.89 487.18 1115.75 489.399 1119.24 490.771C1122.27 491.951 1124.73 493.923 1127.05 496.163C1135.75 504.576 1144.25 515.722 1148.15 527.222C1148.39 527.994 1149.59 527.671 1149.33 526.914Z" fill="#10100E"/>
<path d="M1131 589C1130.35 589.934 1129.68 590.843 1129 591.751C1129 591.83 1129 591.915 1129 592L1131 589Z" fill="white"/>
<path d="M1129.67 588.331C1129.33 588.857 1128.99 589.384 1128.65 589.904C1128.3 590.425 1127.97 590.74 1128 591.312C1128.01 591.624 1128.23 591.893 1128.53 591.975C1128.83 592.057 1129.15 591.932 1129.32 591.667C1129.84 590.79 1130.36 589.914 1130.89 589.04C1131.06 588.708 1130.94 588.301 1130.62 588.113C1130.29 587.924 1129.88 588.02 1129.67 588.331C1129.14 589.208 1128.62 590.084 1128.1 590.957L1129.42 591.312C1129.42 591.083 1130 590.454 1130.11 590.254C1130.37 589.853 1130.63 589.447 1130.89 589.04C1131.37 588.268 1130.15 587.564 1129.67 588.331Z" fill="#10100E"/>
<rect x="524" y="212" width="21" height="65" rx="10.5" fill="#C6D9F3"/>
<rect x="576" y="190" width="22" height="87" rx="11" fill="#C6D9F3"/>
<rect x="631" y="154" width="25" height="122" rx="12.5" fill="#C6D9F3"/>
<rect x="697" y="137" width="24" height="140" rx="12" fill="#C6D9F3"/>
<path d="M271.986 177H389.011C390.33 177 390.33 175 389.011 175H271.986C270.671 175 270.671 177 271.986 177Z" fill="#10100E"/>
<path d="M271.986 210H389.011C390.33 210 390.33 208 389.011 208H271.986C270.671 208 270.671 210 271.986 210Z" fill="#10100E"/>
<path d="M271.986 241H389.011C390.33 241 390.33 239 389.011 239H271.986C270.671 239 270.671 241 271.986 241Z" fill="#10100E"/>
<path d="M100.078 238.273C104.95 251.003 116.562 259.926 130.13 261.366C138.022 262.193 159.772 257.048 151.135 244.832C148.917 241.695 145.009 240.975 141.924 243.459C136.986 247.432 136.058 256.977 136.017 262.811C135.895 280.197 154.54 285.62 169.003 286.994C170.337 287.126 170.327 285.048 169.003 284.921C158.95 283.958 143.781 280.841 139.427 270.495C137.306 265.457 138.052 259.719 139.148 254.524C139.559 252.557 140.163 248.948 141.396 247.427C148.799 243.889 151.377 244.923 149.13 250.529C149.594 253.507 148.474 255.534 145.771 256.612C129.719 266.161 107.989 253.312 102.077 237.7C101.605 236.464 99.5957 237.001 100.073 238.253L100.078 238.273Z" fill="#10100E"/>
<path d="M47 412.998V430.997C47 432.334 49 432.334 49 430.997V412.998C49 411.667 47 411.667 47 412.998Z" fill="#10100E"/>
<path d="M39.0024 424H56.9995C58.331 424 58.336 422 56.9995 422H39.0024C37.6659 422 37.6659 424 39.0024 424Z" fill="#10100E"/>
<path d="M203 308.002V326C203 327.331 205 327.336 205 326V308.002C205 306.666 203 306.666 203 308.002Z" fill="#10100E"/>
<path d="M196.006 316H212.998C214.334 316 214.334 314 212.998 314H196.006C194.665 314 194.665 316 196.006 316Z" fill="#10100E"/>
<path d="M133.832 16.9918C136.76 22.0716 139.212 27.4321 141.162 33.0141C141.613 34.2902 143.651 33.2883 143.228 32.0021C141.276 26.4213 138.823 21.0609 135.898 15.9798C135.236 14.8345 133.189 15.8172 133.854 16.9739L133.832 16.9918Z" fill="#10100E"/>
<path d="M103.876 129.56L119.768 126.47C121.036 126.224 120.398 124.221 119.124 124.44L103.232 127.53C101.963 127.775 102.604 129.783 103.876 129.56Z" fill="#10100E"/>
<path d="M83.2468 90.9597L97.807 90.2051C99.1743 90.1345 99.1206 87.9696 97.7533 88.0402L83.1932 88.7949C81.8258 88.8655 81.8767 91.0258 83.2468 90.9597Z" fill="#10100E"/>
<path d="M100.347 46.7171L111.203 55.7474C112.205 56.5886 113.674 55.1292 112.656 54.2829L101.795 45.2526C100.793 44.4114 99.3242 45.8708 100.347 46.7171Z" fill="#10100E"/>
<path d="M267.822 370.941C264.384 369.632 259.974 371.596 259.125 375.137C258.275 378.679 261.908 382.328 265.673 381.976C269.828 381.585 272.79 376.539 271.813 372.866C270.892 369.412 266.185 367.61 263.397 370.292C262.445 371.205 263.908 372.622 264.88 371.708C267.229 369.447 270.104 372.436 269.884 374.864C269.664 377.292 267.326 380.462 264.445 379.925C262.015 379.475 260.271 376.764 261.58 374.61C262.77 372.776 265.178 372.037 267.264 372.866C268.518 373.354 269.06 371.401 267.822 370.912V370.941Z" fill="#10100E"/>
<path d="M463.487 227.384C459.397 224.749 453.797 227.995 453.077 232.791C452.297 237.985 457.622 241.481 462.094 240.946C467.051 240.35 470.234 234.652 468.542 229.799C466.85 224.947 460.834 223.546 457.058 226.65C456.043 227.48 457.475 228.948 458.475 228.123C461.319 225.788 465.884 227.338 466.811 230.992C467.738 234.646 465.217 238.668 461.51 238.912C458.613 239.106 455.023 237.113 455.018 233.734C455.018 230.034 459.431 227.226 462.486 229.183C463.589 229.891 464.595 228.087 463.496 227.384H463.487Z" fill="#10100E"/>
<path d="M694 323.003V339.994C694 341.335 696 341.335 696 339.994V323.003C696 321.668 694 321.663 694 323.003Z" fill="#10100E"/>
<path d="M684 333H701.998C703.334 333 703.334 331 701.998 331H684C682.669 331 682.664 333 684 333Z" fill="#10100E"/>
<path d="M1161.65 163.63L1170.76 151.838C1171.56 150.815 1170.16 149.307 1169.35 150.355L1160.24 162.162C1159.44 163.185 1160.84 164.693 1161.65 163.645V163.63Z" fill="#10100E"/>
<path d="M1179.86 194.766L1193.27 193.192C1194.52 193.043 1194.4 191.083 1193.14 191.233L1179.73 192.81C1178.48 192.959 1178.6 194.915 1179.86 194.769L1179.86 194.766Z" fill="#10100E"/>
<path d="M1172.09 224.917L1185.21 232.005C1186.38 232.634 1187.06 230.702 1185.91 230.083L1172.79 222.995C1171.62 222.366 1170.94 224.298 1172.09 224.917Z" fill="#10100E"/>
<path d="M974.741 173.669C982.55 165.048 991.089 151.841 990.379 139.526C990.027 133.475 982.369 124.889 976.628 131.329C971.264 137.333 979.018 144.484 984.935 144.761C991.064 145.053 997.484 142.005 1002.97 139.541C1010.29 136.205 1017.21 132.001 1023.57 127.015C1024.61 126.211 1023.57 124.387 1022.53 125.207C1017.45 129.194 1012.01 132.689 1006.28 135.647C999.24 139.234 988.945 144.833 981.513 140.816C977.273 140.01 976.903 138.176 980.401 135.315C981.297 131.216 982.806 130.549 984.93 133.311C988.024 135.637 988.452 138.824 988.135 142.65C987.843 146.298 986.56 149.863 985.237 153.234C982.43 160.247 978.377 166.672 973.281 172.189C972.386 173.178 973.835 174.668 974.741 173.669Z" fill="#10100E"/>
<path d="M835 76.9959V96.0003C835 97.3332 837 97.3332 837 96.0003V76.9959C837 75.668 835 75.668 835 76.9959Z" fill="#10100E"/>
<path d="M828 87H847.002C848.33 87 848.335 85 847.002 85H828C826.667 85 826.667 87 828 87Z" fill="#10100E"/>
<path d="M543.032 70.9956C543.307 74.2319 543.582 77.4665 543.857 80.6995C544.015 82.5301 543.603 85.3669 544.693 87.0104C545.868 88.7853 548.579 88.0217 547.889 85.9181C547.74 85.4703 547.282 85.1624 546.76 85.1596H546.438C544.958 85.2102 544.947 87.2834 546.438 87.2329H546.76L545.63 86.4693C546.294 85.6902 546.574 84.7018 546.404 83.7336C546.348 83.1268 546.297 82.52 546.246 81.9131C546.144 80.6995 546.041 79.4859 545.935 78.2723C545.732 75.845 545.527 73.4194 545.32 70.9956C545.207 69.6757 542.891 69.6606 543.004 70.9956H543.032Z" fill="#10100E"/>
<path d="M537 80H554.998C556.334 80 556.334 78 554.998 78H537C535.669 78 535.664 80 537 80Z" fill="#10100E"/>
<path d="M664.254 542.973C680.434 537.75 696.772 533.131 713.27 529.116C714.549 528.807 714.007 526.744 712.727 527.026C696.229 531.027 679.891 535.646 663.712 540.884C662.462 541.286 662.995 543.354 664.254 542.947V542.973Z" fill="#10100E"/>
<path d="M691.531 549.878C698.427 545.844 706.124 543.534 714.019 543.13C715.322 543.057 715.332 540.929 714.019 541.002C705.766 541.419 697.717 543.823 690.502 548.025C689.353 548.684 690.382 550.522 691.531 549.857V549.878Z" fill="#10100E"/>
<path d="M523.171 328.532C528.693 337.493 537.555 343.787 547.725 345.973C549.004 346.252 549.552 344.256 548.268 343.972C538.609 341.933 530.184 335.98 524.933 327.484C524.231 326.359 522.444 327.398 523.171 328.532Z" fill="#10100E"/>
<path d="M487.277 412.422C488.132 410.858 488.99 409.298 489.852 407.742C490.574 406.426 488.451 405.262 487.723 406.578L485.148 411.257C484.426 412.573 486.549 413.738 487.277 412.422Z" fill="#10100E"/>
<path d="M475.264 410.328C472.001 413.727 468.393 416.738 464.506 419.305C464.011 419.633 463.769 420.535 464.298 420.984C466.671 423.025 469.494 424.399 472.505 424.98C473.781 425.225 474.324 423.164 473.044 422.893C470.372 422.413 467.857 421.231 465.732 419.456L465.524 421.135C469.561 418.472 473.308 415.348 476.698 411.82C477.627 410.855 476.203 409.342 475.264 410.312V410.328Z" fill="#10100E"/>
<path d="M476.691 437.385C479.501 438.725 482.721 437.828 484.727 435.148C485.611 433.941 484.14 432.204 483.246 433.404C481.772 435.457 479.326 436.109 477.248 435.003C476.007 434.4 475.465 436.782 476.691 437.385Z" fill="#10100E"/>
<path d="M856.062 414.406C856.847 412.618 858.066 411.057 859.605 409.865C860.753 408.971 859.142 407.372 858.01 408.26C856.319 409.575 854.978 411.292 854.108 413.257C853.523 414.584 855.472 415.744 856.062 414.406Z" fill="#10100E"/>
<path d="M844.264 415.305L839.099 421.079C838.081 422.217 836.262 423.612 836.032 425.294C835.621 428.267 839.314 428.416 840.923 429.749C841.902 430.59 843.345 429.113 842.337 428.267C841.817 427.824 841.243 427.455 840.63 427.17C839.162 426.478 837.695 426.499 838.923 424.371C839.666 423.063 841.163 421.874 842.161 420.781L845.722 416.808C846.602 415.823 845.189 414.336 844.303 415.326L844.264 415.305Z" fill="#10100E"/>
<path d="M848.42 437.713C850.654 439.658 853.754 439.371 855.706 437.039C856.614 435.946 855.215 434.261 854.283 435.354C852.975 436.92 850.876 437.051 849.436 435.656C848.41 434.72 847.41 436.818 848.42 437.713Z" fill="#10100E"/>
<path d="M747.851 532.852C753.445 530.092 755.57 524.338 752.772 519.526C752.083 518.335 749.911 519.376 750.594 520.563C752.734 524.383 751.017 528.902 746.602 531.075C745.212 531.756 746.479 533.528 747.875 532.847L747.851 532.852Z" fill="#10100E"/>
<path d="M1109.99 495.958C1114.69 496.411 1118.98 493.133 1119.98 488.32C1120.24 486.995 1118.29 486.428 1118 487.758C1117.24 491.652 1113.75 494.293 1109.97 493.844C1108.67 493.699 1108.68 495.814 1109.97 495.958H1109.99Z" fill="#10100E"/>
<path d="M1095.23 517.943C1099.54 516.545 1102.32 512.42 1101.97 507.953C1101.86 506.689 1099.84 506.675 1099.95 507.953C1100.31 511.521 1098.13 514.863 1094.7 516.023C1093.47 516.427 1093.99 518.352 1095.23 517.943H1095.23Z" fill="#10100E"/>
<path d="M1079.2 535.93C1083.7 534.238 1087.25 530.681 1088.93 526.177C1089.38 525.003 1087.5 524.492 1087.02 525.662C1085.55 529.518 1082.51 532.567 1078.66 534.044C1077.49 534.493 1078 536.384 1079.18 535.93H1079.2Z" fill="#10100E"/>
<path d="M1077.64 563.825C1081.55 561.417 1084.21 557.602 1084.98 553.294C1085.21 551.996 1083.08 551.438 1082.82 552.745C1082.2 556.533 1079.91 559.905 1076.5 562.045C1075.33 562.784 1076.43 564.56 1077.62 563.825H1077.64Z" fill="#10100E"/>
<path d="M468.69 304.832C472.162 302.838 473.759 299.155 472.654 295.692C472.265 294.479 470.072 294.994 470.433 296.212C471.29 298.823 470.115 301.613 467.513 303.147C466.308 303.849 467.446 305.534 468.662 304.832H468.69Z" fill="#10100E"/>
<path d="M854.331 200.457L857.849 194.628C858.589 193.398 856.411 192.31 855.664 193.54C854.492 195.485 853.322 197.428 852.153 199.369C851.407 200.599 853.591 201.692 854.331 200.457Z" fill="#10100E"/>
<path d="M845.23 200.259L835.29 208.823C835.039 209.08 834.942 209.452 835.034 209.8C835.127 210.149 835.395 210.422 835.741 210.521L843.773 211.981C845.047 212.21 845.597 210.253 844.313 210.02L836.276 208.559C836.43 209.125 836.579 209.692 836.727 210.263L846.667 201.7C847.658 200.846 846.216 199.41 845.23 200.259Z" fill="#10100E"/>
<path d="M847.979 220.989C851.271 220.55 854.193 218.267 855.852 214.839C856.521 213.469 854.741 212.224 854.077 213.595C852.801 216.288 850.545 218.114 847.979 218.53C846.681 218.722 846.666 221.187 847.979 220.989Z" fill="#10100E"/>
<path d="M532.31 428.938L542.249 426.246C543.563 425.888 543.009 423.681 541.694 424.039L531.75 426.732C530.435 427.089 530.995 429.296 532.31 428.966V428.938Z" fill="#10100E"/>
<path d="M902.254 422.94C906.147 421.864 909.918 420.26 913.49 418.16C914.649 417.485 913.627 415.461 912.473 416.136C909.054 418.145 905.445 419.681 901.718 420.71C900.461 421.053 900.991 423.312 902.254 422.963V422.94Z" fill="#10100E"/>
<path d="M377.635 447.74C376.786 451.795 375.271 455.733 373.134 459.445C372.451 460.623 374.566 461.661 375.249 460.478C377.491 456.614 379.082 452.51 379.978 448.284C380.253 446.996 377.892 446.442 377.617 447.74H377.635Z" fill="#10100E"/>
<path d="M397.751 463.047C397.699 468.197 395.765 473.169 392.282 477.107C391.349 478.165 392.949 479.71 393.892 478.636C397.77 474.275 399.93 468.762 400 463.047C400 461.651 397.751 461.651 397.729 463.047H397.751Z" fill="#10100E"/>
<path d="M414.729 483.013C415.003 487.963 414.434 492.924 413.045 497.697C412.668 499.006 414.766 499.56 415.17 498.256C416.617 493.303 417.212 488.153 416.933 483.013C416.859 481.667 414.686 481.657 414.755 483.013H414.729Z" fill="#10100E"/>
<path d="M320 451.018V468.979C320 470.34 322 470.34 322 468.979V451.018C322 449.663 320 449.658 320 451.018Z" fill="#10100E"/>
<path d="M318.068 369.347C319.539 374.428 325.382 377.408 330.295 375.333C331.542 374.81 330.997 372.719 329.733 373.241C327.873 374.027 325.77 373.988 323.94 373.133C322.11 372.278 320.724 370.687 320.121 368.751C319.737 367.433 317.683 367.993 318.042 369.321L318.068 369.347Z" fill="#10100E"/>
<path fill-rule="evenodd" clip-rule="evenodd" d="M269.257 131.049L180.352 177.193L132.596 85.5703L164.1 69.22C161.313 67.5511 158.922 65.1001 157.297 61.9834C152.746 53.2513 155.921 42.6145 164.393 38.2177C172.865 33.8194 183.415 37.3321 187.967 46.0658C189.591 49.1808 190.235 52.5377 189.998 55.7778L221.501 39.4259L238.344 71.7407C239.906 69.0612 242.203 66.7955 245.128 65.278C253.593 60.8846 264.154 64.4007 268.702 73.1261C273.254 81.8597 270.072 92.4999 261.607 96.8933C258.682 98.4109 255.504 98.9889 252.413 98.7325L269.257 131.049Z" fill="#007BFF"/>
<path fill-rule="evenodd" clip-rule="evenodd" d="M229.37 137.462C225.863 133.765 222.237 129.943 217.854 127.433C207.736 121.636 193.36 123.417 182.894 131.763C176.052 137.217 170.867 145.112 167.818 154.522L168.082 155.035C171.085 145.526 176.268 137.552 183.141 132.073C193.477 123.83 207.666 122.066 217.643 127.781C221.978 130.264 225.585 134.066 229.072 137.742C231.821 140.64 234.625 143.589 237.795 145.876L238.178 145.674C235.044 143.438 232.25 140.498 229.37 137.462Z" fill="white"/>
<path fill-rule="evenodd" clip-rule="evenodd" d="M155.148 56.7129C162.476 58.2218 168.727 62.053 172.314 67.5667C174.473 70.885 175.721 74.7892 176.928 78.5632C178.435 83.2746 179.991 88.1429 183.336 91.8751C188.253 97.3567 196.005 99.2387 202.233 100.75L261.594 115.154L261.343 114.672L202.326 100.352C194.745 98.5123 188.106 96.5843 183.638 91.6011C180.358 87.9474 178.811 83.1129 177.317 78.4415C176.102 74.6408 174.844 70.7098 172.655 67.3454C168.981 61.6986 162.556 57.7824 155.037 56.2752C155.072 56.4214 155.11 56.5672 155.148 56.7129Z" fill="white"/>
<path fill-rule="evenodd" clip-rule="evenodd" d="M149.761 100.996C148.646 93.9022 145.69 87.0096 141.395 81.0759L141.051 81.2502C145.323 87.1365 148.264 93.9824 149.373 101.03C150.26 106.677 149.955 112.389 148.601 117.748L148.885 118.276C150.341 112.752 150.68 106.839 149.761 100.996Z" fill="white"/>
<path fill-rule="evenodd" clip-rule="evenodd" d="M1076.21 237.655C1067.78 233.099 1057.17 236.47 1052.51 245.183C1050.84 248.296 1050.16 251.669 1050.36 254.928L1019.01 237.98L1067.98 146.507L1100.09 163.87C1099.54 160.143 1100.15 156.182 1102.09 152.571C1106.75 143.858 1117.36 140.487 1125.79 145.044C1134.21 149.6 1137.26 160.357 1132.6 169.07C1130.67 172.681 1127.71 175.375 1124.31 176.966L1156.43 194.33L1107.46 285.803L1076.12 268.857C1078.93 267.226 1081.36 264.795 1083.02 261.682C1087.69 252.969 1084.64 242.213 1076.21 237.655Z" fill="#FFB900"/>
<path fill-rule="evenodd" clip-rule="evenodd" d="M1067.75 145.82L1068.86 145.159L1068.38 144.899L1068.17 145.024L1067.75 145.82Z" fill="white"/>
<path fill-rule="evenodd" clip-rule="evenodd" d="M1101.39 162.166C1101.4 162.32 1101.42 162.474 1101.43 162.627L1115.83 152.87L1115.65 152.507L1101.39 162.166Z" fill="white"/>
<path fill-rule="evenodd" clip-rule="evenodd" d="M1128.74 145.953C1128.62 145.862 1128.51 145.771 1128.39 145.682L1115.68 152.668L1115.89 153.015L1128.74 145.953Z" fill="white"/>
<path fill-rule="evenodd" clip-rule="evenodd" d="M1040.51 195.126L1040.16 195.729L1063 184.077L1062.8 183.763L1040.51 195.126Z" fill="white"/>
<path fill-rule="evenodd" clip-rule="evenodd" d="M1099.86 162.617L1099.45 162.398L1090.04 167.832L1090.24 168.172L1099.86 162.617Z" fill="white"/>
<path fill-rule="evenodd" clip-rule="evenodd" d="M1090.71 168.207L1090.5 167.85L1063.4 182.903L1063.62 183.259L1090.71 168.207Z" fill="white"/>
<path fill-rule="evenodd" clip-rule="evenodd" d="M1051.53 225.67L1051.74 226.025L1078.84 210.974L1078.62 210.616L1051.53 225.67Z" fill="white"/>
<path fill-rule="evenodd" clip-rule="evenodd" d="M1024.95 239.006L1025.17 239.363L1052.27 224.31L1052.05 223.954L1024.95 239.006Z" fill="white"/>
<path fill-rule="evenodd" clip-rule="evenodd" d="M1105.82 194.178L1078.73 209.232L1078.94 209.588L1106.04 194.535L1105.82 194.178Z" fill="white"/>
<path fill-rule="evenodd" clip-rule="evenodd" d="M1133.49 180.02L1133.36 179.81L1133.18 179.714L1106.17 194.778L1106.39 195.136L1133.49 180.02Z" fill="white"/>
<path fill-rule="evenodd" clip-rule="evenodd" d="M1024.08 240.35L1025 240.999L1024.58 239.931L1024.08 240.35Z" fill="white"/>
<path fill-rule="evenodd" clip-rule="evenodd" d="M1119.39 220.358L1119.6 220.716L1146.7 205.663L1146.48 205.306L1119.39 220.358Z" fill="white"/>
<path fill-rule="evenodd" clip-rule="evenodd" d="M1151.56 202.947L1152.01 201.996L1145.3 206.666L1145.53 207.143L1151.56 202.947Z" fill="white"/>
<path fill-rule="evenodd" clip-rule="evenodd" d="M1081.5 243.478C1081.58 243.605 1081.67 243.736 1081.75 243.864L1094.54 236.929L1094.29 236.539L1081.5 243.478Z" fill="white"/>
<path fill-rule="evenodd" clip-rule="evenodd" d="M1093.06 235.681L1093.27 236.039L1120.37 220.987L1120.15 220.629L1093.06 235.681Z" fill="white"/>
<path fill-rule="evenodd" clip-rule="evenodd" d="M1124.09 252.281L1109.6 262.018L1109.78 262.388L1123.73 253.016L1124.09 252.281Z" fill="white"/>
<path fill-rule="evenodd" clip-rule="evenodd" d="M1088.39 274.591L1088.82 274.797L1108.96 264.784L1108.74 264.47L1088.39 274.591Z" fill="white"/>
<path fill-rule="evenodd" clip-rule="evenodd" d="M1020.55 232.659L1020.31 233.115L1025.14 241.764L1025.34 242.127L1026.06 242.522L1025.72 241.922L1025.51 241.54L1020.55 232.659Z" fill="white"/>
<path fill-rule="evenodd" clip-rule="evenodd" d="M1037.15 201.334L1036.92 201.739L1050.98 225.024L1051.19 225.363L1057.96 236.574C1058.07 236.506 1058.19 236.446 1058.31 236.38L1051.54 225.168L1051.33 224.828L1037.15 201.334Z" fill="white"/>
<path fill-rule="evenodd" clip-rule="evenodd" d="M1076.01 268.033L1076.75 269.337L1077.77 269.896L1076.53 267.702C1076.36 267.818 1076.18 267.924 1076.01 268.033Z" fill="white"/>
<path fill-rule="evenodd" clip-rule="evenodd" d="M1093.04 236.174L1092.83 235.822L1077.59 210.033L1077.39 209.683L1053.59 169.42L1053.37 169.839L1061.59 183.748L1061.79 184.099L1077.03 209.886L1077.24 210.238L1092.48 236.025L1092.69 236.377L1107.92 262.163L1108.13 262.515L1113.6 271.767L1113.83 271.348L1108.49 262.312L1108.28 261.96L1093.04 236.174Z" fill="white"/>
<path fill-rule="evenodd" clip-rule="evenodd" d="M1104.73 194.492L1104.94 194.845L1119.81 220.821L1120.02 221.176L1131.18 240.674L1131.41 240.25L1120.37 220.969L1120.16 220.615L1090.2 168.308L1090 167.955L1080.91 152.087L1080.23 151.717L1089.65 168.162L1089.85 168.515L1104.73 194.492Z" fill="white"/>
<path fill-rule="evenodd" clip-rule="evenodd" d="M1110.54 145.225L1127.19 175.614C1127.29 175.529 1127.4 175.453 1127.51 175.366L1110.89 145.049C1110.77 145.107 1110.65 145.164 1110.54 145.225Z" fill="white"/>
<path fill-rule="evenodd" clip-rule="evenodd" d="M1146.49 205.499L1148.57 209.29L1148.79 208.855L1132.5 179.039L1131.83 178.662L1131.94 178.875L1146.49 205.499Z" fill="white"/>
</svg>
