<?xml version="1.0" encoding="utf-8"?>
<!-- Generator: Adobe Illustrator 24.0.2, SVG Export Plug-In . SVG Version: 6.00 Build 0)  -->
<svg version="1.1" id="Layer_1" xmlns="http://www.w3.org/2000/svg" xmlns:xlink="http://www.w3.org/1999/xlink" x="0px" y="0px"
	 viewBox="0 0 1000 1000" style="enable-background:new 0 0 1000 1000;" xml:space="preserve">
<style type="text/css">
	.st0{fill:#050505;}
	.st1{fill:url(#SVGID_1_);}
	.st2{fill:url(#SVGID_2_);}
	.st3{fill:url(#SVGID_3_);}
	.st4{fill:url(#SVGID_4_);}
	.st5{fill:url(#SVGID_5_);}
	.st6{fill:url(#SVGID_6_);}
	.st7{fill:url(#SVGID_7_);}
	.st8{fill:url(#SVGID_8_);}
	.st9{fill:url(#SVGID_9_);}
	.st10{fill:url(#SVGID_10_);}
	.st11{fill:url(#SVGID_11_);}
	.st12{fill:url(#SVGID_12_);}
	.st13{fill:url(#SVGID_13_);}
	.st14{fill:url(#SVGID_14_);}
	.st15{fill:url(#SVGID_15_);}
	.st16{fill:url(#SVGID_16_);}
	.st17{fill:url(#SVGID_17_);}
	.st18{fill:url(#SVGID_18_);}
	.st19{fill:url(#SVGID_19_);}
	.st20{fill:url(#SVGID_20_);}
	.st21{fill:url(#SVGID_21_);}
	.st22{fill:url(#SVGID_22_);}
	.st23{fill:url(#SVGID_23_);}
	.st24{fill:url(#SVGID_24_);}
	.st25{fill:url(#SVGID_25_);}
	.st26{fill:url(#SVGID_26_);}
	.st27{fill:url(#SVGID_27_);}
	.st28{fill:url(#SVGID_28_);}
	.st29{fill:url(#SVGID_29_);}
	.st30{fill:url(#SVGID_30_);}
	.st31{fill:url(#SVGID_31_);}
	.st32{fill:url(#SVGID_32_);}
	.st33{fill:url(#SVGID_33_);}
	.st34{fill:url(#SVGID_34_);}
	.st35{fill:url(#SVGID_35_);}
	.st36{fill:url(#SVGID_36_);}
	.st37{fill:url(#SVGID_37_);}
	.st38{fill:url(#SVGID_38_);}
	.st39{fill:url(#SVGID_39_);}
	.st40{fill:url(#SVGID_40_);}
	.st41{fill:url(#SVGID_41_);}
	.st42{fill:url(#SVGID_42_);}
	.st43{fill:url(#SVGID_43_);}
	.st44{fill:url(#SVGID_44_);}
	.st45{fill:url(#SVGID_45_);}
	.st46{fill:url(#SVGID_46_);}
	.st47{fill:url(#SVGID_47_);}
	.st48{fill:url(#SVGID_48_);}
	.st49{fill:url(#SVGID_49_);}
	.st50{fill:url(#SVGID_50_);}
</style>
<g>
	<g>
		<g>
			<g>
				<linearGradient id="SVGID_1_" gradientUnits="userSpaceOnUse" x1="507.2901" y1="419.1712" x2="507.2901" y2="579.7883">
					<stop  offset="0" style="stop-color:#231F20"/>
					<stop  offset="0.5335" style="stop-color:#3F3D3E"/>
					<stop  offset="1" style="stop-color:#231F20"/>
				</linearGradient>
				<path class="st1" d="M500.87,453.46v80.37l-101.34-32.79v-12.43l79.83,25.33v-24.73l-79.83-26.61v-18.28l79.56,26.61
					c0,0,0.27-25.27,0.27-25.94l-107.05-36.09v110.68l153.01,52.01v-49.05l90.58-32.79v50.26l26.34-10.75V402.93L500.87,453.46z
					 M616.45,462.09l-88.43,31.96v-22.58l88.43-31.7V462.09z"/>
				<g>
					<linearGradient id="SVGID_2_" gradientUnits="userSpaceOnUse" x1="499.5287" y1="304.7137" x2="499.5287" y2="576.9537">
						<stop  offset="0" style="stop-color:#1AEBE8"/>
						<stop  offset="0.5559" style="stop-color:#0961B1"/>
						<stop  offset="1" style="stop-color:#DE19E3"/>
					</linearGradient>
					<path class="st2" d="M683.79,375.24l-182.65-66.93l-185.87,66.53l21.71,7.5v86.92h24.53v-78.44l141.65,48.94L683.79,375.24z
						 M352.9,460.65h-7.32v-75.34l7.32,2.53V460.65z M370.91,374.84l129.69-46.1l129.16,45.29l-128.21,46.77L370.91,374.84z"/>
					<g>
						<linearGradient id="SVGID_3_" gradientUnits="userSpaceOnUse" x1="349.2726" y1="472.08" x2="349.2726" y2="515.5453">
							<stop  offset="0" style="stop-color:#231F20"/>
							<stop  offset="0.5335" style="stop-color:#3F3D3E"/>
							<stop  offset="1" style="stop-color:#231F20"/>
						</linearGradient>
						<path class="st3" d="M348.87,518.65l-11.92-26.48v-19.22h24.66v19.87L348.87,518.65z M345.54,490.32l3.68,8.16l3.78-7.67
							v-9.27h-7.46V490.32z"/>
					</g>
				</g>
			</g>
		</g>
	</g>
	<g>
		<linearGradient id="SVGID_4_" gradientUnits="userSpaceOnUse" x1="300.1442" y1="657.8525" x2="300.1442" y2="719.7899">
			<stop  offset="0" style="stop-color:#1AEBE8"/>
			<stop  offset="0.5559" style="stop-color:#0961B1"/>
			<stop  offset="1" style="stop-color:#DE19E3"/>
		</linearGradient>
		<polygon class="st4" points="307.72,681.64 291.65,661.91 287.2,661.91 287.2,691.05 292.57,691.05 292.57,671.32 308.64,691.05 
			313.09,691.05 313.09,661.91 307.72,661.91 		"/>
		<linearGradient id="SVGID_5_" gradientUnits="userSpaceOnUse" x1="384.9764" y1="657.8525" x2="384.9764" y2="719.7899">
			<stop  offset="0" style="stop-color:#1AEBE8"/>
			<stop  offset="0.5559" style="stop-color:#0961B1"/>
			<stop  offset="1" style="stop-color:#DE19E3"/>
		</linearGradient>
		<path class="st5" d="M382.29,661.91l-13.11,29.14h5.58l2.87-6.74h14.57l2.91,6.74h5.66l-13.15-29.14H382.29z M379.46,680.06
			l5.46-12.73l5.49,12.73H379.46z"/>
		<linearGradient id="SVGID_6_" gradientUnits="userSpaceOnUse" x1="464.0262" y1="657.8525" x2="464.0262" y2="719.7899">
			<stop  offset="0" style="stop-color:#1AEBE8"/>
			<stop  offset="0.5559" style="stop-color:#0961B1"/>
			<stop  offset="1" style="stop-color:#DE19E3"/>
		</linearGradient>
		<polygon class="st6" points="451.66,666.49 461.32,666.49 461.32,691.05 466.73,691.05 466.73,666.49 476.39,666.49 
			476.39,661.91 451.66,661.91 		"/>
		<linearGradient id="SVGID_7_" gradientUnits="userSpaceOnUse" x1="535.5642" y1="657.8525" x2="535.5642" y2="719.7899">
			<stop  offset="0" style="stop-color:#1AEBE8"/>
			<stop  offset="0.5559" style="stop-color:#0961B1"/>
			<stop  offset="1" style="stop-color:#DE19E3"/>
		</linearGradient>
		<rect x="532.86" y="661.91" class="st7" width="5.41" height="29.14"/>
		<linearGradient id="SVGID_8_" gradientUnits="userSpaceOnUse" x1="612.1479" y1="657.8525" x2="612.1479" y2="719.7899">
			<stop  offset="0" style="stop-color:#1AEBE8"/>
			<stop  offset="0.5559" style="stop-color:#0961B1"/>
			<stop  offset="1" style="stop-color:#DE19E3"/>
		</linearGradient>
		<path class="st8" d="M612.15,661.49c-9.03,0-15.69,6.37-15.69,14.99c0,8.61,6.66,14.98,15.69,14.98c9.03,0,15.69-6.33,15.69-14.98
			C627.84,667.82,621.18,661.49,612.15,661.49z M612.15,686.72c-5.87,0-10.24-4.29-10.24-10.24c0-5.95,4.37-10.24,10.24-10.24
			s10.24,4.29,10.24,10.24C622.39,682.43,618.01,686.72,612.15,686.72z"/>
		<linearGradient id="SVGID_9_" gradientUnits="userSpaceOnUse" x1="698.9131" y1="657.8525" x2="698.9131" y2="719.7899">
			<stop  offset="0" style="stop-color:#1AEBE8"/>
			<stop  offset="0.5559" style="stop-color:#0961B1"/>
			<stop  offset="1" style="stop-color:#DE19E3"/>
		</linearGradient>
		<polygon class="st9" points="706.49,681.64 690.42,661.91 685.97,661.91 685.97,691.05 691.34,691.05 691.34,671.32 
			707.41,691.05 711.86,691.05 711.86,661.91 706.49,661.91 		"/>
		<linearGradient id="SVGID_10_" gradientUnits="userSpaceOnUse" x1="176.1121" y1="591.3096" x2="176.1121" y2="636.5342">
			<stop  offset="0" style="stop-color:#231F20"/>
			<stop  offset="0.5335" style="stop-color:#3F3D3E"/>
			<stop  offset="1" style="stop-color:#231F20"/>
		</linearGradient>
		<polygon class="st10" points="168.33,617.57 188.18,617.57 188.18,611.28 168.33,611.28 168.33,600.59 190.71,600.59 
			190.71,594.19 160.7,594.19 160.7,635.3 191.53,635.3 191.53,628.9 168.33,628.9 		"/>
		<linearGradient id="SVGID_11_" gradientUnits="userSpaceOnUse" x1="215.602" y1="591.3096" x2="215.602" y2="636.5342">
			<stop  offset="0" style="stop-color:#231F20"/>
			<stop  offset="0.5335" style="stop-color:#3F3D3E"/>
			<stop  offset="1" style="stop-color:#231F20"/>
		</linearGradient>
		<polygon class="st11" points="234.4,594.19 226.12,594.19 215.72,608.81 205.21,594.19 196.57,594.19 211.02,614.33 195.75,635.3 
			204.44,635.3 215.49,619.68 226.64,635.3 235.46,635.3 220.01,614.04 		"/>
		<linearGradient id="SVGID_12_" gradientUnits="userSpaceOnUse" x1="258.4741" y1="591.3096" x2="258.4741" y2="636.5342">
			<stop  offset="0" style="stop-color:#231F20"/>
			<stop  offset="0.5335" style="stop-color:#3F3D3E"/>
			<stop  offset="1" style="stop-color:#231F20"/>
		</linearGradient>
		<path class="st12" d="M258.18,594.19h-16.91v41.11h7.63v-11.87h9.28c10.81,0,17.51-5.58,17.51-14.62
			C275.68,599.71,268.99,594.19,258.18,594.19z M257.83,616.98h-8.93v-16.33h8.93c6.69,0,10.16,3,10.16,8.16
			C267.99,613.98,264.52,616.98,257.83,616.98z"/>
		<linearGradient id="SVGID_13_" gradientUnits="userSpaceOnUse" x1="299.9032" y1="591.3096" x2="299.9032" y2="636.5342">
			<stop  offset="0" style="stop-color:#231F20"/>
			<stop  offset="0.5335" style="stop-color:#3F3D3E"/>
			<stop  offset="1" style="stop-color:#231F20"/>
		</linearGradient>
		<polygon class="st13" points="292.12,617.57 311.97,617.57 311.97,611.28 292.12,611.28 292.12,600.59 314.5,600.59 314.5,594.19 
			284.49,594.19 284.49,635.3 315.32,635.3 315.32,628.9 292.12,628.9 		"/>
		<linearGradient id="SVGID_14_" gradientUnits="userSpaceOnUse" x1="342.5654" y1="591.3096" x2="342.5654" y2="636.5342">
			<stop  offset="0" style="stop-color:#231F20"/>
			<stop  offset="0.5335" style="stop-color:#3F3D3E"/>
			<stop  offset="1" style="stop-color:#231F20"/>
		</linearGradient>
		<path class="st14" d="M359.42,608.81c0-9.1-6.7-14.62-17.51-14.62H325v41.11h7.64v-11.98h9.28c0.53,0,1.06,0,1.59-0.06l8.4,12.04
			h8.22l-9.46-13.51C356.25,619.62,359.42,615.04,359.42,608.81z M341.57,617.04h-8.93v-16.39h8.93c6.69,0,10.16,3,10.16,8.16
			C351.73,613.98,348.26,617.04,341.57,617.04z"/>
		<linearGradient id="SVGID_15_" gradientUnits="userSpaceOnUse" x1="380.6761" y1="591.3096" x2="380.6761" y2="636.5342">
			<stop  offset="0" style="stop-color:#231F20"/>
			<stop  offset="0.5335" style="stop-color:#3F3D3E"/>
			<stop  offset="1" style="stop-color:#231F20"/>
		</linearGradient>
		<polygon class="st15" points="376.86,635.3 384.49,635.3 384.49,600.65 398.12,600.65 398.12,594.19 363.23,594.19 363.23,600.65 
			376.86,600.65 		"/>
		<linearGradient id="SVGID_16_" gradientUnits="userSpaceOnUse" x1="439.4282" y1="591.3096" x2="439.4282" y2="636.5342">
			<stop  offset="0" style="stop-color:#231F20"/>
			<stop  offset="0.5335" style="stop-color:#3F3D3E"/>
			<stop  offset="1" style="stop-color:#231F20"/>
		</linearGradient>
		<path class="st16" d="M462.48,635.3l-18.38-41.11h-9.4l-18.32,41.11h9.75l3.64-8.81h19.09l3.64,8.81H462.48z M432.82,619.27
			l6.52-15.74l6.52,15.74H432.82z"/>
		<linearGradient id="SVGID_17_" gradientUnits="userSpaceOnUse" x1="481.796" y1="591.3096" x2="481.796" y2="636.5342">
			<stop  offset="0" style="stop-color:#231F20"/>
			<stop  offset="0.5335" style="stop-color:#3F3D3E"/>
			<stop  offset="1" style="stop-color:#231F20"/>
		</linearGradient>
		<path class="st17" d="M474.98,605.82c0-2.59,2.17-4.7,7.81-4.7c3.64,0,7.58,1.06,11.4,3.23l2.94-7.23
			c-3.82-2.41-9.1-3.64-14.27-3.64c-11.69,0-17.33,5.81-17.33,12.8c0,15.27,23.9,9.98,23.9,17.68c0,2.52-2.29,4.41-7.93,4.41
			c-4.93,0-10.1-1.76-13.57-4.29l-3.23,7.17c3.64,2.82,10.22,4.76,16.74,4.76c11.75,0,17.44-5.87,17.44-12.74
			C498.89,608.17,474.98,613.4,474.98,605.82z"/>
		<linearGradient id="SVGID_18_" gradientUnits="userSpaceOnUse" x1="520.4316" y1="591.3096" x2="520.4316" y2="636.5342">
			<stop  offset="0" style="stop-color:#231F20"/>
			<stop  offset="0.5335" style="stop-color:#3F3D3E"/>
			<stop  offset="1" style="stop-color:#231F20"/>
		</linearGradient>
		<path class="st18" d="M537.52,623.27c0-15.1-23.9-9.87-23.9-17.44c0-2.59,2.17-4.7,7.81-4.7c3.64,0,7.58,1.06,11.4,3.23l2.94-7.23
			c-3.82-2.41-9.1-3.64-14.27-3.64c-11.69,0-17.33,5.81-17.33,12.8c0,15.27,23.9,9.98,23.9,17.68c0,2.52-2.29,4.41-7.93,4.41
			c-4.93,0-10.1-1.76-13.57-4.29l-3.23,7.17c3.64,2.82,10.22,4.76,16.74,4.76C531.83,636.01,537.52,630.14,537.52,623.27z"/>
		<linearGradient id="SVGID_19_" gradientUnits="userSpaceOnUse" x1="549.9682" y1="591.3096" x2="549.9682" y2="636.5342">
			<stop  offset="0" style="stop-color:#231F20"/>
			<stop  offset="0.5335" style="stop-color:#3F3D3E"/>
			<stop  offset="1" style="stop-color:#231F20"/>
		</linearGradient>
		<rect x="545.21" y="594.19" class="st19" width="9.51" height="41.11"/>
		<linearGradient id="SVGID_20_" gradientUnits="userSpaceOnUse" x1="582.9735" y1="591.3096" x2="582.9735" y2="636.5342">
			<stop  offset="0" style="stop-color:#231F20"/>
			<stop  offset="0.5335" style="stop-color:#3F3D3E"/>
			<stop  offset="1" style="stop-color:#231F20"/>
		</linearGradient>
		<path class="st20" d="M602.12,614.1h-8.69v12.04c-2.41,1.29-4.82,1.76-7.4,1.76c-7.87,0-13.33-5.46-13.33-13.16
			c0-7.81,5.46-13.15,13.45-13.15c4.17,0,7.63,1.47,10.63,4.64l6.11-5.64c-3.99-4.64-9.98-7.11-17.21-7.11
			c-13.1,0-22.62,8.87-22.62,21.26c0,12.39,9.51,21.26,22.44,21.26c5.87,0,12.1-1.82,16.62-5.22V614.1z"/>
		<linearGradient id="SVGID_21_" gradientUnits="userSpaceOnUse" x1="630.9531" y1="591.3096" x2="630.9531" y2="636.5342">
			<stop  offset="0" style="stop-color:#231F20"/>
			<stop  offset="0.5335" style="stop-color:#3F3D3E"/>
			<stop  offset="1" style="stop-color:#231F20"/>
		</linearGradient>
		<polygon class="st21" points="640.41,619.15 619.97,594.19 612.1,594.19 612.1,635.3 621.5,635.3 621.5,610.34 641.99,635.3 
			649.81,635.3 649.81,594.19 640.41,594.19 		"/>
		<linearGradient id="SVGID_22_" gradientUnits="userSpaceOnUse" x1="683.8896" y1="591.3096" x2="683.8896" y2="636.5342">
			<stop  offset="0" style="stop-color:#231F20"/>
			<stop  offset="0.5335" style="stop-color:#3F3D3E"/>
			<stop  offset="1" style="stop-color:#231F20"/>
		</linearGradient>
		<polygon class="st22" points="698.07,610.63 698.13,635.3 707.06,635.3 706.94,594.19 699.13,594.19 683.98,619.74 668.59,594.19 
			660.72,594.19 660.72,635.3 669.64,635.3 669.64,611.16 681.69,630.96 685.97,630.96 		"/>
		<linearGradient id="SVGID_23_" gradientUnits="userSpaceOnUse" x1="733.8928" y1="591.3096" x2="733.8928" y2="636.5342">
			<stop  offset="0" style="stop-color:#231F20"/>
			<stop  offset="0.5335" style="stop-color:#3F3D3E"/>
			<stop  offset="1" style="stop-color:#231F20"/>
		</linearGradient>
		<polygon class="st23" points="727.43,618.15 746.52,618.15 746.52,610.75 727.43,610.75 727.43,601.83 749.05,601.83 
			749.05,594.19 717.98,594.19 717.98,635.3 749.81,635.3 749.81,627.67 727.43,627.67 		"/>
		<linearGradient id="SVGID_24_" gradientUnits="userSpaceOnUse" x1="777.4052" y1="591.3096" x2="777.4052" y2="636.5342">
			<stop  offset="0" style="stop-color:#231F20"/>
			<stop  offset="0.5335" style="stop-color:#3F3D3E"/>
			<stop  offset="1" style="stop-color:#231F20"/>
		</linearGradient>
		<polygon class="st24" points="786.86,619.15 766.42,594.19 758.55,594.19 758.55,635.3 767.95,635.3 767.95,610.34 788.45,635.3 
			796.26,635.3 796.26,594.19 786.86,594.19 		"/>
		<linearGradient id="SVGID_25_" gradientUnits="userSpaceOnUse" x1="820.4482" y1="591.3096" x2="820.4482" y2="636.5342">
			<stop  offset="0" style="stop-color:#231F20"/>
			<stop  offset="0.5335" style="stop-color:#3F3D3E"/>
			<stop  offset="1" style="stop-color:#231F20"/>
		</linearGradient>
		<polygon class="st25" points="802.53,594.19 802.53,601.94 815.69,601.94 815.69,635.3 825.21,635.3 825.21,601.94 838.36,601.94 
			838.36,594.19 		"/>
	</g>
</g>
</svg>
