<svg width="1643" height="512" viewBox="0 0 1643 512" fill="none" xmlns="http://www.w3.org/2000/svg">
<path fill-rule="evenodd" clip-rule="evenodd" d="M1369 269C1359.06 269 1351 260.94 1351 250.997C1351 241.06 1359.06 233 1369 233C1378.94 233 1387 241.06 1387 250.997C1387 260.94 1378.94 269 1369 269Z" fill="#FF5C33"/>
<path fill-rule="evenodd" clip-rule="evenodd" d="M164 30C164 39.9396 155.94 48 146 48C136.06 48 128 39.9396 128 30C128 20.0604 136.06 12 146 12C155.94 12 164 20.0604 164 30Z" fill="#74E2CD"/>
<path fill-rule="evenodd" clip-rule="evenodd" d="M1635 42C1635 45.3132 1632.31 48 1629 48C1625.69 48 1623 45.3132 1623 42C1623 38.6868 1625.69 36 1629 36C1632.31 36 1635 38.6868 1635 42Z" fill="#74E2CD"/>
<path fill-rule="evenodd" clip-rule="evenodd" d="M303 240L289 226L303 212L317 226L303 240Z" fill="#BCD5FF"/>
<path fill-rule="evenodd" clip-rule="evenodd" d="M135 241.966C118.199 256.679 72.2873 241.707 38.9864 226.69L2 186.473C47.1761 199.407 92.5013 204.6 120.374 181L135 241.966Z" fill="white"/>
<path d="M135 241.966C118.199 256.679 72.2873 241.707 38.9864 226.69L2 186.473C47.1761 199.407 92.5013 204.6 120.374 181L135 241.966" stroke="#EBEBEB"/>
<path fill-rule="evenodd" clip-rule="evenodd" d="M42.3524 214L31 200.398L32.6476 199L44 212.602L42.3524 214Z" fill="#BCD5FF"/>
<path fill-rule="evenodd" clip-rule="evenodd" d="M63.1488 221L51 202.118L52.8517 201L65 219.882L63.1488 221Z" fill="#BCD5FF"/>
<path fill-rule="evenodd" clip-rule="evenodd" d="M112.814 232L104 199.554L106.186 199L115 231.446L112.814 232Z" fill="#BCD5FF"/>
<path fill-rule="evenodd" clip-rule="evenodd" d="M1557 504.966C1540.2 519.679 1494.29 504.707 1460.99 489.69L1424 449.473C1469.18 462.407 1514.5 467.6 1542.37 444L1557 504.966Z" fill="white"/>
<path d="M1557 504.966C1540.2 519.679 1494.29 504.707 1460.99 489.69L1424 449.473C1469.18 462.407 1514.5 467.6 1542.37 444L1557 504.966" stroke="#EBEBEB"/>
<path fill-rule="evenodd" clip-rule="evenodd" d="M1464.35 477L1453 463.398L1454.65 462L1466 475.602L1464.35 477Z" fill="#BCD5FF"/>
<path fill-rule="evenodd" clip-rule="evenodd" d="M1485.15 484L1473 465.118L1474.85 464L1487 482.882L1485.15 484Z" fill="#BCD5FF"/>
<path fill-rule="evenodd" clip-rule="evenodd" d="M1534.81 495L1526 462.554L1528.19 462L1537 494.446L1534.81 495Z" fill="#BCD5FF"/>
<path fill-rule="evenodd" clip-rule="evenodd" d="M1470.38 1.18246C1469.37 1.06665 1468.33 1.02563 1467.32 1.057L1467.28 0.0098431C1468.35 -0.0215233 1469.44 0.0219071 1470.5 0.142547L1470.38 1.18246ZM1461.29 2.13069L1460.96 1.13903C1461.98 0.798828 1463.03 0.531008 1464.08 0.342809L1464.26 1.37307C1463.26 1.55162 1462.26 1.80738 1461.29 2.13069ZM1476.29 2.75802C1475.35 2.35508 1474.38 2.01488 1473.39 1.7543L1473.66 0.740921C1474.7 1.01839 1475.72 1.37307 1476.71 1.79773L1476.29 2.75802ZM1455.84 4.90059L1455.24 4.04646C1456.11 3.42878 1457.04 2.86901 1457.99 2.38404L1458.47 3.31538C1457.56 3.77864 1456.68 4.31186 1455.84 4.90059ZM1481.49 5.9767C1480.71 5.318 1479.87 4.71239 1479.01 4.17675L1479.56 3.28642C1480.47 3.84861 1481.34 4.48317 1482.17 5.17565L1481.49 5.9767ZM1451.42 9.12299L1450.59 8.47877C1451.25 7.63429 1451.98 6.83324 1452.75 6.09492L1453.48 6.85254C1452.74 7.55467 1452.05 8.31952 1451.42 9.12299ZM1485.55 10.5514C1484.99 9.69965 1484.36 8.88171 1483.69 8.11685L1484.47 7.42438C1485.18 8.22542 1485.84 9.08438 1486.42 9.97953L1485.55 10.5514ZM1448.4 14.4384L1447.42 14.0596C1447.81 13.0607 1448.28 12.0811 1448.8 11.1522L1449.72 11.6685C1449.21 12.554 1448.77 13.4853 1448.4 14.4384ZM1488.11 16.0984C1487.82 15.1188 1487.46 14.1537 1487.03 13.2296L1487.98 12.7904C1488.43 13.7628 1488.81 14.7738 1489.11 15.804L1488.11 16.0984ZM1447.05 20.398L1446.01 20.3184C1446.09 19.2471 1446.25 18.1758 1446.49 17.1383L1447.51 17.3675C1447.29 18.3568 1447.13 19.3774 1447.05 20.398ZM1489.77 25.2067L1488.73 25.0547C1488.88 24.0486 1488.95 23.0207 1488.95 22.0001C1488.95 21.0229 1488.88 20.0457 1488.75 19.0903L1489.79 18.9455C1489.93 19.9492 1490 20.9747 1490 22.0001C1490 23.0714 1489.92 24.1499 1489.77 25.2067ZM1446.45 26.7147C1446.22 25.67 1446.07 24.5987 1446 23.5322L1447.04 23.4598C1447.11 24.478 1447.26 25.4962 1447.48 26.4927L1446.45 26.7147ZM1487.92 31.3497L1486.97 30.9033C1487.4 29.9816 1487.77 29.0189 1488.06 28.0417L1489.07 28.3433C1488.76 29.3688 1488.37 30.3797 1487.92 31.3497ZM1448.73 32.7129C1448.21 31.7768 1447.75 30.7972 1447.37 29.7983L1448.35 29.4291C1448.71 30.3773 1449.15 31.3111 1449.64 32.2014L1448.73 32.7129ZM1484.37 36.6965L1483.58 35.9967C1484.27 35.2367 1484.9 34.4212 1485.46 33.5743L1486.34 34.1534C1485.75 35.0413 1485.08 35.8978 1484.37 36.6965ZM1452.64 37.7967C1451.87 37.0536 1451.15 36.2453 1450.5 35.3984L1451.33 34.759C1451.95 35.5673 1452.64 36.3345 1453.37 37.0439L1452.64 37.7967ZM1479.43 40.7958L1478.88 39.9007C1479.75 39.3747 1480.59 38.7739 1481.38 38.1224L1482.04 38.9259C1481.22 39.6135 1480.34 40.2433 1479.43 40.7958ZM1457.85 41.5462C1456.91 41.0564 1455.98 40.4894 1455.11 39.862L1455.72 39.0103C1456.55 39.6087 1457.43 40.1492 1458.34 40.6148L1457.85 41.5462ZM1473.51 43.2979L1473.25 42.2821C1474.24 42.0263 1475.21 41.6958 1476.15 41.2977L1476.56 42.2628C1475.58 42.6802 1474.55 43.0276 1473.51 43.2979ZM1463.93 43.6284C1462.87 43.433 1461.82 43.1579 1460.81 42.8129L1461.16 41.8212C1462.12 42.1518 1463.11 42.4148 1464.12 42.6006L1463.93 43.6284ZM1467.97 44C1467.69 44 1467.41 43.9952 1467.13 43.9831L1467.17 42.9384C1468.19 42.9746 1469.23 42.9384 1470.24 42.8322L1470.35 43.8745C1469.57 43.9566 1468.77 44 1467.97 44Z" fill="#95BEFF"/>
<path fill-rule="evenodd" clip-rule="evenodd" d="M1621.69 215L1642 258.825L1576.3 289L1556 245.175L1598.99 251.995L1621.69 215Z" fill="white"/>
<path d="M1621.69 215L1642 258.825L1576.3 289L1556 245.175L1598.99 251.995L1621.69 215" stroke="#EAEAEA"/>
<path fill-rule="evenodd" clip-rule="evenodd" d="M1621 215L1602.24 262L1556 245.313L1621 215Z" fill="#95BEFF"/>
<path fill-rule="evenodd" clip-rule="evenodd" d="M143.692 427L164 470.825L98.3026 501L78 457.175L120.985 463.995L143.692 427Z" fill="white"/>
<path d="M143.692 427L164 470.825L98.3026 501L78 457.175L120.985 463.995L143.692 427" stroke="#EAEAEA"/>
<path fill-rule="evenodd" clip-rule="evenodd" d="M143 427L124.237 474L78 457.313L143 427Z" fill="#95BEFF"/>
</svg>
